<svg width="16" height="16" viewBox="0 0 16 16" fill="none" xmlns="http://www.w3.org/2000/svg">
<g clip-path="url(#clip0_40002623_73)">
<path d="M14 7.99999C14 4.68628 11.3136 1.99999 7.99996 1.99999C4.68625 1.99999 1.99996 4.68628 1.99996 7.99999C1.99996 11.3137 4.68625 14 7.99996 14C11.3136 14 14 11.3137 14 7.99999ZM8.00647 10.6667L8.07483 10.6699C8.41099 10.7041 8.67314 10.9882 8.67314 11.3333C8.67314 11.6785 8.41099 11.9626 8.07483 11.9967L8.00647 12H7.99996C7.63177 12 7.33329 11.7015 7.33329 11.3333C7.33329 10.9651 7.63177 10.6667 7.99996 10.6667H8.00647ZM6.69853 4.30728C7.21827 4.03197 7.81586 3.93534 8.39775 4.03515L8.51298 4.05793C9.04955 4.17454 9.53702 4.45403 9.90881 4.85806L9.98694 4.9466L10.0605 5.0384C10.4187 5.50434 10.6139 6.07659 10.6132 6.66666L10.6048 6.85416C10.5196 7.77035 9.82283 8.3837 9.31637 8.72134C9.02596 8.91495 8.74034 9.0575 8.52991 9.15103C8.42387 9.19816 8.33454 9.23392 8.27014 9.25845C8.23798 9.27071 8.21169 9.28033 8.19267 9.2871C8.18315 9.29048 8.1751 9.29289 8.16923 9.29491C8.16638 9.29589 8.16401 9.29686 8.16207 9.29751C8.16119 9.29781 8.16015 9.29794 8.15946 9.29817L8.15816 9.29882C8.15796 9.29888 8.15739 9.29911 7.94657 8.66666L8.15751 9.29882C7.80828 9.41523 7.43091 9.22677 7.31441 8.87759C7.19801 8.52838 7.3865 8.15102 7.73564 8.03449L7.74605 8.03059C7.75633 8.02693 7.77333 8.02082 7.79553 8.01236C7.84048 7.99523 7.9071 7.96834 7.98824 7.93228C8.15279 7.85915 8.36721 7.75168 8.57678 7.61197C9.03652 7.30548 9.27991 6.97941 9.27991 6.66666V6.66535L9.2747 6.54817C9.25101 6.27562 9.14421 6.0155 8.96676 5.80468V5.80533C8.78929 5.59453 8.55161 5.44418 8.28707 5.37434L8.17183 5.3496C7.90034 5.30308 7.62209 5.34169 7.37496 5.45897L7.27079 5.51431C6.99943 5.67387 6.79321 5.92441 6.68876 6.22134C6.56653 6.56858 6.18578 6.75106 5.8385 6.6289C5.4913 6.50664 5.30879 6.1259 5.43095 5.77864C5.63994 5.18459 6.05271 4.68365 6.59566 4.36457L6.69853 4.30728ZM15.3333 7.99999C15.3333 12.05 12.05 15.3333 7.99996 15.3333C3.94987 15.3333 0.666626 12.05 0.666626 7.99999C0.666626 3.9499 3.94987 0.666656 7.99996 0.666656C12.05 0.666656 15.3333 3.9499 15.3333 7.99999Z" fill="#0284C7"/>
</g>
<defs>
<clipPath id="clip0_40002623_73">
<rect width="16" height="16" fill="white"/>
</clipPath>
</defs>
</svg>
