<svg width="300" height="208" viewBox="0 0 300 208" fill="none" xmlns="http://www.w3.org/2000/svg">
<path d="M180.599 41.4931C176.774 41.4931 173.384 40.6899 170.437 39.0834C167.49 37.477 165.181 35.2578 163.508 32.4228C161.834 29.5907 161 26.3065 161 22.576C161 19.3959 161.57 16.4597 162.706 13.7645C163.843 11.0693 165.437 8.72812 167.49 6.74092C169.541 4.75373 171.954 3.20681 174.729 2.10314C177.504 0.996498 180.546 0.443176 183.855 0.443176C187.716 0.443176 191.111 1.24639 194.04 2.8528C196.969 4.45922 199.269 6.68143 200.943 9.51348C202.614 12.3485 203.451 15.6298 203.451 19.3602C203.451 22.5403 202.881 25.4765 201.744 28.1717C200.608 30.8669 199.011 33.2081 196.96 35.1953C194.91 37.1825 192.497 38.7294 189.722 39.8331C186.947 40.9397 183.905 41.4931 180.596 41.4931H180.599ZM190.683 19.3096C190.683 16.9595 189.992 15.0764 188.615 13.6604C187.235 12.2444 185.41 11.5364 183.133 11.5364C181.341 11.5364 179.738 12.0123 178.326 12.9613C176.913 13.9133 175.8 15.2163 174.99 16.8732C174.18 18.5332 173.776 20.449 173.776 22.6266C173.776 24.941 174.465 26.8181 175.845 28.249C177.222 29.6829 179.05 30.3999 181.326 30.3999C183.154 30.3999 184.766 29.9239 186.161 28.9749C187.555 28.0259 188.659 26.7111 189.47 25.0362C190.28 23.3614 190.683 21.4515 190.683 19.3096Z" fill="#E31F26"/>
<path d="M242.287 38.4885C241.322 39.0061 240.114 39.4731 238.666 39.8866C237.218 40.3002 235.683 40.6304 234.063 40.8713C232.443 41.1123 230.858 41.2343 229.306 41.2343C224.789 41.2343 220.928 40.5084 217.723 39.0567C214.517 37.6049 212.069 35.5077 210.38 32.7589C208.692 30.0131 207.846 26.7021 207.846 22.8319C207.846 18.3755 208.879 14.4874 210.947 11.1705C213.016 7.85352 215.912 5.28028 219.634 3.44778C223.355 1.61528 227.718 0.701996 232.716 0.701996C234.44 0.701996 236.232 0.841813 238.093 1.1155C239.954 1.39216 241.714 1.77294 243.367 2.25487C245.02 2.73976 246.4 3.29011 247.504 3.91483L244.661 13.8657C242.937 12.9673 240.99 12.2771 238.817 11.7922C236.645 11.3103 234.422 11.0664 232.146 11.0664C228.493 11.0664 225.587 12.0778 223.433 14.0977C221.278 16.1176 220.201 18.8396 220.201 22.2607C220.201 24.9916 221.035 27.1424 222.708 28.7131C224.379 30.2868 226.682 31.0722 229.611 31.0722C230.784 31.0722 231.784 30.9502 232.612 30.7093L233.49 26.1488H227.751L229.508 17.2332H246.415L242.278 38.4855L242.287 38.4885Z" fill="#E31F26"/>
<path d="M255.989 1.27316H268.397L273.309 21.3325L285.925 1.27316H299.315L291.715 40.666H280.286L284.319 19.5714L276.303 32.4257H266.996L263.842 19.622L259.808 40.666H248.38L255.98 1.27316H255.989Z" fill="#E31F26"/>
<path d="M166.947 45.496H170.844L174.305 56.5535L181.997 45.496H186.232L182.677 63.9282H179.071L181.564 50.9519L175.322 59.9002H172.298L169.491 50.9757L166.998 63.9252H163.392L166.947 45.493V45.496Z" fill="#231F20"/>
<path d="M196.052 45.496H200.02L203.626 63.9282H199.658L198.931 59.1744H191.817L189.277 63.9282H185.356L196.049 45.496H196.052ZM198.471 56.1668L197.358 48.8903L193.438 56.1668H198.471Z" fill="#231F20"/>
<path d="M211.004 48.697H205.294L205.923 45.496H221.263L220.634 48.697H214.924L211.971 63.9282H208.051L211.004 48.697Z" fill="#231F20"/>
<path d="M224.24 45.496H236.022L235.44 48.5274H227.288L226.392 53.0373H233.577L232.995 56.0686H225.81L224.866 60.8938H233.672L233.09 63.9252H220.655L224.237 45.493L224.24 45.496Z" fill="#231F20"/>
<path d="M240.352 45.496H245.433C247.56 45.496 249.208 45.9571 250.368 46.8793C251.528 47.8015 252.11 49.1105 252.11 50.8091C252.11 52.2311 251.724 53.424 250.95 54.3849C250.175 55.3457 249.208 56.0716 248.047 56.5565L251.555 63.9282H247.394L244.685 57.3062H241.758L240.476 63.9282H236.776L240.358 45.496H240.352ZM244.343 54.4711C245.554 54.4711 246.522 54.1558 247.246 53.5251C247.973 52.8945 248.335 52.0526 248.335 51.0025C248.335 50.1457 248.053 49.4913 247.489 49.0391C246.925 48.5869 246.118 48.3608 245.07 48.3608H243.498L242.313 54.4711H244.346H244.343Z" fill="#231F20"/>
<path d="M262.248 56.3602L260.773 63.9282H256.927L258.402 56.2412L253.903 45.496H258.016L260.824 53.4508L266.655 45.496H271.009L262.251 56.3602H262.248Z" fill="#231F20"/>
<path d="M276.476 45.496H280.443L284.049 63.9282H280.081L279.354 59.1744H272.241L269.7 63.9282H265.78L276.473 45.496H276.476ZM278.894 56.1668L277.781 48.8903L273.861 56.1668H278.894Z" fill="#231F20"/>
<path d="M290.314 45.496H294.235L291.258 60.7272H299.315L298.686 63.9282H286.735L290.314 45.496Z" fill="#231F20"/>
<path d="M143.358 172.923C191.837 172.923 236.273 176.572 270.823 182.643C271.572 182.771 271.873 181.72 271.17 181.427C244.251 170.372 199.03 163.12 147.776 163.12C100.391 163.12 58.1738 169.32 30.7894 178.995C30.0591 179.251 30.333 180.339 31.0906 180.229C63.0574 175.63 101.706 172.932 143.348 172.932L143.358 172.923Z" fill="#FFCD39"/>
<path d="M258.609 67.9282C267.9 67.9282 277.416 69.4716 285.679 72.4496C291.079 74.3964 293.134 80.5925 290.937 85.8959C288.34 92.1622 280.918 94.6821 274.467 92.5864C268.959 90.7972 263.584 89.9018 258.454 89.9018C246.633 89.9018 242.361 93.8983 242.361 98.8911H242.38C242.381 114.153 298.91 102.741 298.91 139.546C298.91 155.507 286.68 169.312 261.788 171.484C257.252 171.879 252.712 171.093 248.296 169.984C240.49 168.022 233.026 166.711 222.622 165.134C222.216 165.073 221.973 165.02 221.601 164.847C216.207 162.339 212.628 157.022 214.8 151.484C216.868 146.21 220.98 141.154 229.098 143.818C244.259 148.794 246.88 149.806 254.903 149.806C262.927 149.806 271.142 146.524 271.143 141.677C271.143 125.848 214.466 137.397 214.466 100.308C214.466 82.4767 228.989 67.9282 258.609 67.9282ZM54.8232 67.937C68.6288 67.937 80.4201 71.7212 89.5381 78.7455C94.6417 82.6774 93.9688 90.1358 89.1943 94.4614C84.0441 99.1273 76.1771 98.1601 70.0938 94.8002C65.9687 92.5219 61.3744 91.3286 56.248 91.3286C39.8722 91.3286 28.4795 102.741 28.4795 119.859C28.4796 136.977 39.8722 148.389 56.248 148.389C61.373 148.389 65.9657 147.195 70.0898 144.918C76.1749 141.559 84.0453 140.593 89.1953 145.261C93.9691 149.589 94.6398 157.05 89.5342 160.981C88.7808 161.561 88.0092 162.119 87.2197 162.654C72.1468 164.539 58.3844 167.101 46.4297 170.206C44.7466 170.643 42.9858 170.751 41.2852 170.388C16.8057 165.162 0 145.72 0 119.868C9.35487e-05 89.4813 23.2127 67.9371 54.8232 67.937ZM161.185 69.9399C187.391 69.9399 200.208 80.6392 200.208 96.0473C200.208 105.603 195.369 113.302 186.825 117.728C198.08 121.724 205.055 130.283 205.055 142.409C205.055 149.727 202.493 155.751 197.509 160.277C196.739 160.976 195.694 161.272 194.659 161.175C179.914 159.801 164.155 159.06 147.775 159.06H147.767C139.362 159.06 131.118 159.257 123.09 159.633C116.125 159.96 110.204 154.467 110.204 147.495V81.9399C110.204 75.3125 115.577 69.9399 122.204 69.9399H161.185ZM138.127 129.14V149.404H161.769C171.444 149.404 176.575 146.121 176.575 139.272C176.575 132.423 171.453 129.14 161.769 129.14H138.127ZM138.127 90.3315V109.589H157.497C166.899 109.589 171.737 106.16 171.737 99.8871C171.737 93.6144 166.899 90.3315 157.497 90.3315H138.127Z" fill="url(#paint0_linear_40002794_44454)"/>
<path d="M0 198.91C0 193.734 3.97074 190.022 9.31071 190.022C12.2774 190.022 14.7511 191.101 16.3668 193.067L13.82 195.426C12.6699 194.1 11.2185 193.414 9.51152 193.414C6.29842 193.414 4.02551 195.673 4.02551 198.91C4.02551 202.147 6.30755 204.406 9.51152 204.406C11.2276 204.406 12.6699 203.72 13.82 202.367L16.3668 204.726C14.7511 206.71 12.2774 207.798 9.28332 207.798C3.96161 207.798 0 204.095 0 198.91Z" fill="#333333"/>
<path d="M17.5898 198.91C17.5898 193.808 21.5606 190.022 26.9736 190.022C32.3866 190.022 36.3573 193.78 36.3573 198.91C36.3573 204.04 32.3592 207.798 26.9736 207.798C21.588 207.798 17.5898 204.022 17.5898 198.91ZM32.35 198.91C32.35 195.646 30.0498 193.414 26.9827 193.414C23.9156 193.414 21.6154 195.646 21.6154 198.91C21.6154 202.175 23.9156 204.406 26.9827 204.406C30.0498 204.406 32.35 202.175 32.35 198.91Z" fill="#333333"/>
<path d="M50.9443 198.645H54.5682V205.613C52.6787 207.039 50.0863 207.798 47.6308 207.798C42.2361 207.798 38.2653 204.095 38.2653 198.91C38.2653 193.725 42.2361 190.022 47.7038 190.022C50.7161 190.022 53.2172 191.055 54.8877 192.994L52.3409 195.353C51.0904 194.027 49.6481 193.414 47.9046 193.414C44.5729 193.414 42.2908 195.646 42.2908 198.91C42.2908 202.175 44.5729 204.406 47.8499 204.406C48.927 204.406 49.9311 204.214 50.9352 203.665V198.636L50.9443 198.645ZM43.0302 185.386H45.4309C45.4766 186.437 46.3894 187.132 47.5395 187.132C48.6897 187.132 49.6025 186.446 49.6481 185.386H52.0488C51.9484 187.69 50.0863 189.117 47.5395 189.117C44.9928 189.117 43.1306 187.69 43.0302 185.386Z" fill="#333333"/>
<path d="M69.173 207.506L65.8686 202.714H62.2174V207.506H58.2466V190.324H65.6678C70.2502 190.324 73.1164 192.701 73.1164 196.56C73.1164 199.139 71.8202 201.032 69.5838 201.983L73.4359 207.506H69.173ZM65.4487 193.561H62.2174V199.55H65.4487C67.8768 199.55 69.1 198.416 69.1 196.551C69.1 194.685 67.8768 193.561 65.4487 193.561Z" fill="#333333"/>
<path d="M87.5571 203.821H79.5882L78.0729 207.506H74.0018L81.6512 190.324H85.5763L93.2439 207.506H89.0815L87.5662 203.821H87.5571ZM86.3065 200.803L83.5863 194.228L80.8661 200.803H86.3065Z" fill="#333333"/>
<path d="M98.9948 193.506V198.051H106.936V201.242H98.9948V207.506H95.0241V190.324H107.986V193.515H98.9948V193.506Z" fill="#333333"/>
<path d="M110.606 186.712C110.606 185.532 111.464 184.654 112.669 184.654C113.873 184.654 114.722 185.541 114.722 186.712C114.722 187.882 113.864 188.796 112.669 188.796C111.473 188.796 110.606 187.909 110.606 186.712ZM110.679 190.314H114.649V207.497H110.679V190.314Z" fill="#333333"/>
<path d="M141.386 202.815C141.386 205.787 139.031 207.506 134.521 207.506H125.649V190.324H134.029C138.319 190.324 140.519 192.116 140.519 194.795C140.519 196.514 139.633 197.84 138.237 198.572C140.144 199.184 141.377 200.657 141.377 202.815H141.386ZM129.601 193.314V197.365H133.545C135.48 197.365 136.539 196.679 136.539 195.326C136.539 193.972 135.489 193.314 133.545 193.314H129.601ZM137.397 202.394C137.397 200.949 136.292 200.254 134.239 200.254H129.611V204.497H134.239C136.301 204.497 137.397 203.857 137.397 202.385V202.394Z" fill="#333333"/>
<path d="M144.325 186.712C144.325 185.532 145.183 184.654 146.388 184.654C147.593 184.654 148.442 185.541 148.442 186.712C148.442 187.882 147.584 188.796 146.388 188.796C145.192 188.796 144.325 187.909 144.325 186.712ZM144.398 190.314H148.369V207.497H144.398V190.314Z" fill="#333333"/>
<path d="M152.44 190.314H156.411V204.26H165.01V207.497H152.44V190.314Z" fill="#333333"/>
<path d="M178.537 198.645H182.161V205.613C180.272 207.039 177.679 207.798 175.224 207.798C169.829 207.798 165.868 204.095 165.868 198.91C165.868 193.725 169.838 190.022 175.306 190.022C178.318 190.022 180.819 191.055 182.49 192.994L179.943 195.353C178.693 194.027 177.25 193.414 175.507 193.414C172.175 193.414 169.893 195.646 169.893 198.91C169.893 202.175 172.175 204.406 175.461 204.406C176.538 204.406 177.542 204.214 178.547 203.665V198.636L178.537 198.645Z" fill="#333333"/>
<path d="M185.767 186.712C185.767 185.532 186.625 184.654 187.83 184.654C189.035 184.654 189.884 185.541 189.884 186.712C189.884 187.882 189.026 188.796 187.83 188.796C186.634 188.796 185.767 187.909 185.767 186.712ZM185.84 190.314H189.811V207.497H185.84V190.314Z" fill="#333333"/>
<path d="M199.459 205.814L200.81 202.824C202.252 203.875 204.416 204.616 206.47 204.616C208.825 204.616 209.774 203.83 209.774 202.778C209.774 199.559 199.797 201.772 199.797 195.39C199.797 192.472 202.152 190.04 207.026 190.04C209.181 190.04 211.39 190.552 212.978 191.558L211.755 194.576C210.166 193.67 208.523 193.222 206.999 193.222C204.644 193.222 203.74 194.109 203.74 195.188C203.74 198.352 213.717 196.167 213.717 202.476C213.717 205.348 211.344 207.807 206.442 207.807C203.722 207.807 200.974 206.994 199.459 205.823V205.814Z" fill="#333333"/>
<path d="M216.365 186.712C216.365 185.532 217.223 184.654 218.427 184.654C219.632 184.654 220.481 185.541 220.481 186.712C220.481 187.882 219.623 188.796 218.427 188.796C217.232 188.796 216.365 187.909 216.365 186.712ZM216.447 190.314H220.417V207.497H216.447V190.314Z" fill="#333333"/>
<path d="M223.128 205.814L224.479 202.824C225.921 203.875 228.085 204.616 230.139 204.616C232.494 204.616 233.443 203.83 233.443 202.778C233.443 199.559 223.466 201.772 223.466 195.39C223.466 192.472 225.821 190.04 230.695 190.04C232.85 190.04 235.059 190.552 236.647 191.558L235.424 194.576C233.836 193.67 232.192 193.222 230.668 193.222C228.313 193.222 227.409 194.109 227.409 195.188C227.409 198.352 237.386 196.167 237.386 202.476C237.386 205.348 235.013 207.807 230.111 207.807C227.391 207.807 224.644 206.994 223.128 205.823V205.814Z" fill="#333333"/>
<path d="M243.42 193.561H237.934V190.324H252.886V193.561H247.4V207.506H243.429V193.561H243.42Z" fill="#333333"/>
<path d="M268.294 204.314V207.506H255.013V190.324H267.975V193.515H258.956V197.246H266.925V200.337H258.956V204.314H268.294Z" fill="#333333"/>
<path d="M287.062 207.506L287.035 197.191L281.987 205.686H280.198L275.177 197.41V207.497H271.453V190.314H274.739L281.156 200.995L287.482 190.314H290.741L290.786 207.497H287.062V207.506Z" fill="#333333"/>
<path d="M294.784 186.712C294.784 185.532 295.642 184.654 296.847 184.654C298.052 184.654 298.901 185.541 298.901 186.712C298.901 187.882 298.043 188.796 296.847 188.796C295.651 188.796 294.784 187.909 294.784 186.712ZM294.857 190.314H298.828V207.497H294.857V190.314Z" fill="#333333"/>
<defs>
<linearGradient id="paint0_linear_40002794_44454" x1="-2.75621e-06" y1="119.758" x2="293.525" y2="114.348" gradientUnits="userSpaceOnUse">
<stop stop-color="#FD7E14"/>
<stop offset="1" stop-color="#FFDA6A"/>
</linearGradient>
</defs>
</svg>
