<svg width="32" height="32" viewBox="0 0 32 32" fill="none" xmlns="http://www.w3.org/2000/svg">
<g id="Icons/Play">
<g id="Vector (Stroke)">
<path d="M8.06511 2.49479C8.57762 2.51829 9.01797 2.72097 9.35027 2.90104C9.74191 3.11329 10.2061 3.42385 10.7227 3.76823L24.7435 13.1159L25.349 13.5234C25.538 13.6543 25.7118 13.78 25.862 13.901C26.1644 14.1449 26.5214 14.4832 26.7266 14.9779L26.8151 15.2266C26.9934 15.8146 26.9642 16.4496 26.7266 17.0221C26.5214 17.5167 26.1643 17.8552 25.862 18.099C25.7118 18.22 25.538 18.3457 25.349 18.4766L24.7435 18.8841L10.7227 28.2318C10.2062 28.5761 9.74185 28.8867 9.35027 29.099C9.01801 29.279 8.57757 29.4817 8.06511 29.5052L7.84115 29.5039C7.16025 29.4633 6.52458 29.1638 6.06121 28.6732L5.87371 28.4505C5.50599 27.9644 5.41182 27.4003 5.3724 26.9701C5.33177 26.5265 5.33334 25.9683 5.33334 25.3477V6.65234C5.33334 6.03166 5.33179 5.47349 5.3724 5.02995C5.41182 4.59977 5.50599 4.03561 5.87371 3.54948L6.06121 3.32682C6.52459 2.83612 7.16026 2.53675 7.84115 2.49609L8.06511 2.49479ZM8.00001 25.3477C8.00001 26.0211 8.00183 26.4337 8.02865 26.7266C8.03023 26.7438 8.03353 26.7598 8.03516 26.7747C8.0487 26.7677 8.06528 26.7623 8.08074 26.7539C8.3393 26.6137 8.68349 26.3864 9.2435 26.013L23.2643 16.6654L23.832 16.2826C23.9816 16.1792 24.0957 16.0962 24.1875 16.0221C24.1969 16.0146 24.2041 16.0055 24.2122 15.9987C24.2044 15.9922 24.1965 15.9838 24.1875 15.9766C24.0957 15.9026 23.9816 15.8194 23.832 15.7161L23.2643 15.3346L9.2435 5.98698C8.68309 5.61338 8.33935 5.38498 8.08074 5.24479C8.06491 5.23622 8.04897 5.22982 8.03516 5.22266C8.03344 5.23826 8.03031 5.25533 8.02865 5.27344C8.00185 5.56636 8.00001 5.97893 8.00001 6.65234V25.3477Z" fill="#F5F5F5"/>
<path d="M8.00001 25.3477C8.00001 26.0211 8.00183 26.4337 8.02865 26.7266C8.03023 26.7438 8.03353 26.7598 8.03516 26.7747C8.0487 26.7677 8.06528 26.7623 8.08074 26.7539C8.3393 26.6137 8.68349 26.3864 9.2435 26.013L23.2643 16.6654L23.832 16.2826C23.9816 16.1792 24.0957 16.0962 24.1875 16.0221C24.1969 16.0146 24.2041 16.0055 24.2122 15.9987C24.2044 15.9922 24.1965 15.9838 24.1875 15.9766C24.0957 15.9026 23.9816 15.8194 23.832 15.7161L23.2643 15.3346L9.2435 5.98698C8.68309 5.61338 8.33935 5.38498 8.08074 5.24479C8.06491 5.23622 8.04897 5.22982 8.03516 5.22266C8.03344 5.23826 8.03031 5.25533 8.02865 5.27344C8.00185 5.56636 8.00001 5.97893 8.00001 6.65234V25.3477Z" fill="#F5F5F5"/>
</g>
</g>
</svg>
